<mxfile host="app.diagrams.net" modified="2022-10-20T09:34:43.887Z" agent="5.0 (Macintosh; Intel Mac OS X 10_15_7) AppleWebKit/537.36 (KHTML, like Gecko) Chrome/106.0.0.0 Safari/537.36" etag="MuNWN2Dys51MXBhSyukp" version="20.4.2" type="github">
  <diagram id="3228e29e-7158-1315-38df-8450db1d8a1d" name="Page-1">
    <mxGraphModel dx="1500" dy="1366" grid="0" gridSize="10" guides="1" tooltips="1" connect="1" arrows="1" fold="1" page="1" pageScale="1" pageWidth="1200" pageHeight="409" background="#EFF1F3" math="0" shadow="0">
      <root>
        <mxCell id="0" />
        <mxCell id="1" parent="0" />
        <mxCell id="c7gIeQ4KLr-0-EGLMsei-47" style="edgeStyle=none;rounded=0;orthogonalLoop=1;jettySize=auto;html=1;exitX=1;exitY=0.75;exitDx=0;exitDy=0;entryX=0;entryY=0.5;entryDx=0;entryDy=0;entryPerimeter=0;endArrow=none;endFill=0;elbow=vertical;strokeColor=#4A919B;" parent="1" source="c7gIeQ4KLr-0-EGLMsei-6" target="c7gIeQ4KLr-0-EGLMsei-10" edge="1">
          <mxGeometry relative="1" as="geometry" />
        </mxCell>
        <mxCell id="c7gIeQ4KLr-0-EGLMsei-48" style="edgeStyle=none;rounded=0;orthogonalLoop=1;jettySize=auto;html=1;exitX=1;exitY=0.75;exitDx=0;exitDy=0;entryX=0;entryY=0.5;entryDx=0;entryDy=0;entryPerimeter=0;endArrow=none;endFill=0;elbow=vertical;strokeColor=#4A919B;" parent="1" source="c7gIeQ4KLr-0-EGLMsei-6" target="c7gIeQ4KLr-0-EGLMsei-9" edge="1">
          <mxGeometry relative="1" as="geometry" />
        </mxCell>
        <mxCell id="c7gIeQ4KLr-0-EGLMsei-49" style="edgeStyle=none;rounded=0;orthogonalLoop=1;jettySize=auto;html=1;exitX=1;exitY=0.75;exitDx=0;exitDy=0;entryX=0;entryY=0.5;entryDx=0;entryDy=0;entryPerimeter=0;endArrow=none;endFill=0;elbow=vertical;strokeColor=#4A919B;" parent="1" source="c7gIeQ4KLr-0-EGLMsei-6" target="c7gIeQ4KLr-0-EGLMsei-11" edge="1">
          <mxGeometry relative="1" as="geometry" />
        </mxCell>
        <mxCell id="c7gIeQ4KLr-0-EGLMsei-6" value="" style="shape=image;verticalLabelPosition=bottom;verticalAlign=top;imageAspect=0;aspect=fixed;image=data:image/svg+xml,PHN2ZyB4bWxuczp4bGluaz0iaHR0cDovL3d3dy53My5vcmcvMTk5OS94bGluayIgeG1sbnM9Imh0dHA6Ly93d3cudzMub3JnLzIwMDAvc3ZnIiBoZWlnaHQ9IjIwMCIgd2lkdGg9IjIwMCIgdmVyc2lvbj0iMS4xIiB2aWV3Qm94PSIwIDAgMTAyNCAxMDI0IiBjbGFzcz0iaWNvbiI+PGRlZnM+PHN0eWxlIHR5cGU9InRleHQvY3NzIj5AZm9udC1mYWNlIHsgZm9udC1mYW1pbHk6IGZlZWRiYWNrLWljb25mb250OyBzcmM6IHVybCgiLy9hdC5hbGljZG4uY29tL3QvZm9udF8xMDMxMTU4X3U2OXc4eWh4ZHUud29mZjI/dD0xNjMwMDMzNzU5OTQ0IikgZm9ybWF0KCJ3b2ZmMiIpLCB1cmwoIi8vYXQuYWxpY2RuLmNvbS90L2ZvbnRfMTAzMTE1OF91Njl3OHloeGR1LndvZmY/dD0xNjMwMDMzNzU5OTQ0IikgZm9ybWF0KCJ3b2ZmIiksIHVybCgiLy9hdC5hbGljZG4uY29tL3QvZm9udF8xMDMxMTU4X3U2OXc4eWh4ZHUudHRmP3Q9MTYzMDAzMzc1OTk0NCIpIGZvcm1hdCgidHJ1ZXR5cGUiKTsgfSYjeGE7PC9zdHlsZT48L2RlZnM+PHBhdGggZmlsbD0iIzRBOTE5QiIgZD0iTTk2MCA5NDRINjRjLTM1LjI5NiAwLTY0LTI4LjcwNC02NC02NFY2NTZjMC0zNS4yOTYgMjguNzA0LTY0IDY0LTY0aDg5NmMzNS4yOTYgMCA2NCAyOC43MDQgNjQgNjR2MjI0YzAgMzUuMjk2LTI4LjcwNCA2NC02NCA2NHpNNjQgNjI0Yy0xNy42NDggMC0zMiAxNC4zNTItMzIgMzJ2MjI0YzAgMTcuNjQ4IDE0LjM1MiAzMiAzMiAzMmg4OTZjMTcuNjQ4IDAgMzItMTQuMzUyIDMyLTMyVjY1NmMwLTE3LjY0OC0xNC4zNTItMzItMzItMzJINjR6Ii8+PHBhdGggZmlsbD0iIzRBOTE5QiIgZD0iTTI0MCAxMDA4SDExMmExNiAxNiAwIDAgMS0xNi0xNnYtNjRhMTYgMTYgMCAwIDEgMTYtMTZoMTI4YTE2IDE2IDAgMCAxIDE2IDE2djY0YTE2IDE2IDAgMCAxLTE2IDE2eiBtLTExMi0zMmg5NnYtMzJIMTI4djMyek05MTIgMTAwOGgtMTI4YTE2IDE2IDAgMCAxLTE2LTE2di02NGExNiAxNiAwIDAgMSAxNi0xNmgxMjhhMTYgMTYgMCAwIDEgMTYgMTZ2NjRhMTYgMTYgMCAwIDEtMTYgMTZ6IG0tMTEyLTMyaDk2di0zMmgtOTZ2MzJ6TTg1Ni42NTYgNDYwLjE2YTE1Ljk4NCAxNS45ODQgMCAwIDEtNi44MTYtMzAuNDk2QzkxNi43NjggMzk4LjI3MiA5NjAgMzMwLjA5NiA5NjAgMjU2YzAtMTA1Ljg3Mi04Ni4xMjgtMTkyLTE5Mi0xOTJTNTc2IDE1MC4xMjggNTc2IDI1NmMwIDc0LjA4IDQzLjIzMiAxNDIuMjcyIDExMC4xNiAxNzMuNjY0YTE2IDE2IDAgMCAxLTEzLjYgMjguOTc2QzU5NC40OCA0MjEuOTg0IDU0NCAzNDIuNDQ4IDU0NCAyNTZjMC0xMjMuNTIgMTAwLjQ4LTIyNCAyMjQtMjI0czIyNCAxMDAuNDggMjI0IDIyNGMwIDg2LjQ0OC01MC40NjQgMTY1Ljk4NC0xMjguNTYgMjAyLjY0YTE1Ljk2OCAxNS45NjggMCAwIDEtNi43ODQgMS41MnoiLz48cGF0aCBmaWxsPSIjNEE5MTlCIiBkPSJNODUzLjI5NiAzODcuODRhMTYgMTYgMCAwIDEtOS40ODgtMjguODk2QTEyOC4yNCAxMjguMjQgMCAwIDAgODk2IDI1NmMwLTcwLjU3Ni01Ny40MjQtMTI4LTEyOC0xMjhzLTEyOCA1Ny40MjQtMTI4IDEyOGExMjguMjQgMTI4LjI0IDAgMCAwIDUyLjE5MiAxMDIuOTQ0IDE2IDE2IDAgMCAxLTE4Ljk0NCAyNS43OTJBMTYwLjMzNiAxNjAuMzM2IDAgMCAxIDYwOCAyNTZjMC04OC4yMjQgNzEuNzc2LTE2MCAxNjAtMTYwczE2MCA3MS43NzYgMTYwIDE2MGMwIDUwLjYwOC0yNC4zODQgOTguNzItNjUuMjQ4IDEyOC43MzZhMTUuOTIgMTUuOTIgMCAwIDEtOS40NCAzLjEwNHoiLz48cGF0aCBmaWxsPSIjNEE5MTlCIiBkPSJNODQ3LjY5NiAyNzYuNDhhMTYgMTYgMCAwIDEtMTUuNjY0LTE5LjM5MkM4MzIgMjIwLjY4OCA4MDMuMzEyIDE5MiA3NjggMTkycy02NCAyOC43MDQtNjQgNjRjMS44NzIgOC42NC0zLjYzMiAxNy42OTYtMTIuMjcyIDE5LjU2OC04LjU5MiAxLjg4OC0xNy4xODQtMy4wNC0xOS4wNTYtMTEuNjhDNjcyIDI2MC43MzYgNjcyIDI1Ny44ODggNjcyIDI1NmMwLTUyLjk0NCA0My4wNTYtOTYgOTYtOTZzOTYgNDMuMDU2IDk2IDk2YzAgMS45MDQgMCA0Ljc1Mi0wLjY3MiA3Ljg3MmExNi4wMTYgMTYuMDE2IDAgMCAxLTE1LjYzMiAxMi42MDh6Ii8+PHBhdGggZmlsbD0iIzRBOTE5QiIgZD0iTTgwMC4zMiA2MjRINzM2YTE1LjkzNiAxNS45MzYgMCAwIDEtMTEuNTY4LTQuOTYgMTUuOTA0IDE1LjkwNCAwIDAgMS00LjQxNi0xMS43NmwxNS4yNjQtMzM2LjAxNmEzMi43MzYgMzIuNzM2IDAgMCAxIDY1LjQyNCAwbDE1LjEzNiAzMzIuODMyQTE2IDE2IDAgMCAxIDgwMC4zMiA2MjR6IG0tNDcuNTItMzJoMzAuNDQ4bC0xNC41MTItMzE5LjI5Nkw3NTIuOCA1OTJ6TTE0NCA4MTZjLTI2LjQ2NCAwLTQ4LTIxLjUzNi00OC00OHMyMS41MzYtNDggNDgtNDggNDggMjEuNTM2IDQ4IDQ4LTIxLjUzNiA0OC00OCA0OHogbTAtNjRhMTYgMTYgMCAxIDAgMC4wMTYgMzIuMDE2QTE2IDE2IDAgMCAwIDE0NCA3NTJ6TTI3MiA4MTZjLTI2LjQ2NCAwLTQ4LTIxLjUzNi00OC00OHMyMS41MzYtNDggNDgtNDggNDggMjEuNTM2IDQ4IDQ4LTIxLjUzNiA0OC00OCA0OHogbTAtNjRhMTYgMTYgMCAxIDAgMC4wMTYgMzIuMDE2QTE2IDE2IDAgMCAwIDI3MiA3NTJ6TTQwMCA4MTZjLTI2LjQ2NCAwLTQ4LTIxLjUzNi00OC00OHMyMS41MzYtNDggNDgtNDggNDggMjEuNTM2IDQ4IDQ4LTIxLjUzNiA0OC00OCA0OHogbTAtNjRhMTYgMTYgMCAxIDAgMC4wMTYgMzIuMDE2QTE2IDE2IDAgMCAwIDQwMCA3NTJ6TTk0NCA4ODBjLTQuMTYgMC04LjMyLTEuNzYtMTEuMzYtNC42NEExNi44IDE2LjggMCAwIDEgOTI4IDg2NGMwLTQuMzIgMS43Ni04LjMyIDQuNjQtMTEuMzYgNS45Mi01LjkyIDE2LjgtNS45MiAyMi43MiAwIDIuODggMy4wNCA0LjY0IDcuMiA0LjY0IDExLjM2cy0xLjc2IDguMzItNC42NCAxMS4zNmMtMy4wNCAyLjg4LTcuMiA0LjY0LTExLjM2IDQuNjR6TTg4MCA4ODBjLTQuMTYgMC04LjMyLTEuNzYtMTEuMzYtNC42NC0yLjg4LTMuMDQtNC42NC03LjItNC42NC0xMS4zNnMxLjc2LTguMzIgNC42NC0xMS4zNmM1LjkyLTUuOTIgMTYuNjQtNS45MiAyMi43MiAwIDIuODggMy4wNCA0LjY0IDcuMiA0LjY0IDExLjM2cy0xLjc2IDguMzItNC42NCAxMS4zNmMtMy4wNCAzLjA0LTcuMiA0LjY0LTExLjM2IDQuNjR6TTgxNiA4ODBjLTQuMzIgMC04LjMyLTEuNzYtMTEuMzYtNC42NC0yLjg4LTMuMDQtNC42NC03LjItNC42NC0xMS4zNnMxLjc2LTguMzIgNC42NC0xMS4zNmM1LjkyLTUuOTIgMTYuOC01LjkyIDIyLjcyIDAgMi44OCAzLjA0IDQuNjQgNy4yIDQuNjQgMTEuMzZzLTEuNzYgOC4zMi00LjY0IDExLjM2Yy0zLjA0IDIuODgtNy4yIDQuNjQtMTEuMzYgNC42NHpNNzUyIDg4MGMtNC4xNiAwLTguMzItMS43Ni0xMS4zNi00LjY0LTIuODgtMy4wNC00LjY0LTcuMi00LjY0LTExLjM2czEuNzYtOC4zMiA0LjY0LTExLjM2YzYuMDgtNS45MiAxNi42NC01LjkyIDIyLjcyIDAgMi44OCAzLjA0IDQuNjQgNy4yIDQuNjQgMTEuMzZzLTEuNzYgOC4zMi00LjY0IDExLjM2Yy0zLjA0IDIuODgtNy4yIDQuNjQtMTEuMzYgNC42NHpNOTQ0IDgxNmMtNC4xNiAwLTguMzItMS43Ni0xMS4zNi00LjY0QTE2LjggMTYuOCAwIDAgMSA5MjggODAwYzAtNC4zMiAxLjc2LTguMzIgNC42NC0xMS4zNiA1LjkyLTUuOTIgMTYuOC01LjkyIDIyLjcyIDAgMi44OCAzLjA0IDQuNjQgNy4yIDQuNjQgMTEuMzZzLTEuNzYgOC4zMi00LjY0IDExLjM2Yy0zLjA0IDIuODgtNy4yIDQuNjQtMTEuMzYgNC42NHpNODgwIDgxNmMtNC4xNiAwLTguMzItMS43Ni0xMS4zNi00LjY0QTE2LjggMTYuOCAwIDAgMSA4NjQgODAwYzAtNC4zMiAxLjc2LTguMzIgNC42NC0xMS4zNiA1LjkyLTUuOTIgMTYuNjQtNS45MiAyMi43MiAwIDIuODggMy4wNCA0LjY0IDcuMiA0LjY0IDExLjM2cy0xLjc2IDguMzItNC42NCAxMS4zNmMtMy4wNCAyLjg4LTcuMiA0LjY0LTExLjM2IDQuNjR6TTgxNiA4MTZjLTQuMTYgMC04LjMyLTEuNzYtMTEuMzYtNC42NC0yLjg4LTMuMDQtNC42NC03LjItNC42NC0xMS4zNnMxLjc2LTguMzIgNC42NC0xMS4zNmM1LjkyLTUuOTIgMTYuOC01LjkyIDIyLjcyIDAgMi44OCAzLjA0IDQuNjQgNy4yIDQuNjQgMTEuMzZzLTEuNzYgOC4zMi00LjY0IDExLjM2Yy0zLjA0IDIuODgtNy4yIDQuNjQtMTEuMzYgNC42NHpNOTQ0IDc1MmMtNC4xNiAwLTguMzItMS43Ni0xMS4zNi00LjY0QTE2LjggMTYuOCAwIDAgMSA5MjggNzM2YzAtNC4zMiAxLjc2LTguMzIgNC42NC0xMS4zNiA1LjkyLTUuOTIgMTYuOC01LjkyIDIyLjcyIDAgMi44OCAzLjA0IDQuNjQgNy4yIDQuNjQgMTEuMzZzLTEuNzYgOC4zMi00LjY0IDExLjM2Yy0zLjA0IDIuODgtNy4yIDQuNjQtMTEuMzYgNC42NHpNODgwIDc1MmMtNC4xNiAwLTguMzItMS43Ni0xMS4zNi00LjY0QTE2LjggMTYuOCAwIDAgMSA4NjQgNzM2YzAtNC4zMiAxLjc2LTguMzIgNC42NC0xMS4zNiA1LjkyLTUuOTIgMTYuNjQtNS45MiAyMi43MiAwIDIuODggMy4wNCA0LjY0IDcuMiA0LjY0IDExLjM2cy0xLjc2IDguMzItNC42NCAxMS4zNmMtMy4wNCAyLjg4LTcuMiA0LjY0LTExLjM2IDQuNjR6TTk0NCA2ODhjLTQuMTYgMC04LjMyLTEuNzYtMTEuMzYtNC42NGExNi4xNiAxNi4xNiAwIDAgMSAwLTIyLjcyYzUuOTItNS45MiAxNi44LTUuOTIgMjIuNzIgMCAyLjg4IDMuMDQgNC42NCA3LjA0IDQuNjQgMTEuMzYgMCA0LjE2LTEuNzYgOC4zMi00LjY0IDExLjM2LTMuMDQgMi44OC03LjIgNC42NC0xMS4zNiA0LjY0eiIvPjwvc3ZnPg==" parent="1" vertex="1">
          <mxGeometry x="197" y="534" width="119" height="119" as="geometry" />
        </mxCell>
        <mxCell id="c7gIeQ4KLr-0-EGLMsei-20" style="edgeStyle=orthogonalEdgeStyle;rounded=0;orthogonalLoop=1;jettySize=auto;html=1;exitX=1;exitY=0.5;exitDx=0;exitDy=0;exitPerimeter=0;entryX=0;entryY=0.5;entryDx=0;entryDy=0;entryPerimeter=0;endArrow=none;endFill=0;strokeColor=#4A919B;" parent="1" source="c7gIeQ4KLr-0-EGLMsei-9" edge="1">
          <mxGeometry relative="1" as="geometry">
            <mxPoint x="615" y="509.5" as="targetPoint" />
          </mxGeometry>
        </mxCell>
        <mxCell id="c7gIeQ4KLr-0-EGLMsei-24" style="edgeStyle=none;rounded=0;orthogonalLoop=1;jettySize=auto;html=1;exitX=1;exitY=0.5;exitDx=0;exitDy=0;exitPerimeter=0;entryX=0;entryY=0.5;entryDx=0;entryDy=0;entryPerimeter=0;elbow=vertical;endArrow=none;endFill=0;strokeColor=#4A919B;" parent="1" source="c7gIeQ4KLr-0-EGLMsei-9" target="c7gIeQ4KLr-0-EGLMsei-13" edge="1">
          <mxGeometry relative="1" as="geometry" />
        </mxCell>
        <mxCell id="c7gIeQ4KLr-0-EGLMsei-28" style="edgeStyle=none;rounded=0;orthogonalLoop=1;jettySize=auto;html=1;exitX=1;exitY=0.5;exitDx=0;exitDy=0;exitPerimeter=0;entryX=0;entryY=0.5;entryDx=0;entryDy=0;entryPerimeter=0;endArrow=none;endFill=0;elbow=vertical;strokeColor=#4A919B;" parent="1" source="c7gIeQ4KLr-0-EGLMsei-9" target="c7gIeQ4KLr-0-EGLMsei-14" edge="1">
          <mxGeometry relative="1" as="geometry" />
        </mxCell>
        <mxCell id="c7gIeQ4KLr-0-EGLMsei-9" value="" style="fontColor=#0066CC;verticalAlign=top;verticalLabelPosition=bottom;labelPosition=center;align=center;html=1;outlineConnect=0;gradientColor=none;gradientDirection=north;strokeWidth=2;shape=mxgraph.networks.router;fillColor=#4A919B;fontSize=30;" parent="1" vertex="1">
          <mxGeometry x="398" y="489.5" width="133.33" height="40" as="geometry" />
        </mxCell>
        <mxCell id="c7gIeQ4KLr-0-EGLMsei-19" style="edgeStyle=orthogonalEdgeStyle;rounded=0;orthogonalLoop=1;jettySize=auto;html=1;exitX=1;exitY=0.5;exitDx=0;exitDy=0;exitPerimeter=0;endArrow=none;endFill=0;strokeColor=#4A919B;" parent="1" source="c7gIeQ4KLr-0-EGLMsei-10" target="c7gIeQ4KLr-0-EGLMsei-13" edge="1">
          <mxGeometry relative="1" as="geometry" />
        </mxCell>
        <mxCell id="c7gIeQ4KLr-0-EGLMsei-22" style="rounded=0;orthogonalLoop=1;jettySize=auto;html=1;exitX=1;exitY=0.5;exitDx=0;exitDy=0;exitPerimeter=0;elbow=vertical;entryX=0;entryY=0.5;entryDx=0;entryDy=0;entryPerimeter=0;endArrow=none;endFill=0;strokeColor=#4A919B;" parent="1" source="c7gIeQ4KLr-0-EGLMsei-10" target="c7gIeQ4KLr-0-EGLMsei-14" edge="1">
          <mxGeometry relative="1" as="geometry">
            <mxPoint x="551.6363636363635" y="715.4545454545455" as="targetPoint" />
          </mxGeometry>
        </mxCell>
        <mxCell id="c7gIeQ4KLr-0-EGLMsei-29" style="edgeStyle=none;rounded=0;orthogonalLoop=1;jettySize=auto;html=1;exitX=0.5;exitY=1;exitDx=0;exitDy=0;exitPerimeter=0;endArrow=none;endFill=0;elbow=vertical;strokeColor=#4A919B;" parent="1" source="c7gIeQ4KLr-0-EGLMsei-10" target="c7gIeQ4KLr-0-EGLMsei-11" edge="1">
          <mxGeometry relative="1" as="geometry" />
        </mxCell>
        <mxCell id="c7gIeQ4KLr-0-EGLMsei-30" style="edgeStyle=none;rounded=0;orthogonalLoop=1;jettySize=auto;html=1;exitX=0.5;exitY=0;exitDx=0;exitDy=0;exitPerimeter=0;entryX=0.5;entryY=1;entryDx=0;entryDy=0;entryPerimeter=0;endArrow=none;endFill=0;elbow=vertical;strokeColor=#4A919B;" parent="1" source="c7gIeQ4KLr-0-EGLMsei-10" target="c7gIeQ4KLr-0-EGLMsei-9" edge="1">
          <mxGeometry relative="1" as="geometry" />
        </mxCell>
        <mxCell id="c7gIeQ4KLr-0-EGLMsei-10" value="" style="fontColor=#0066CC;verticalAlign=top;verticalLabelPosition=bottom;labelPosition=center;align=center;html=1;outlineConnect=0;gradientColor=none;gradientDirection=north;strokeWidth=2;shape=mxgraph.networks.router;fillColor=#4A919B;fontSize=30;" parent="1" vertex="1">
          <mxGeometry x="398" y="603.5" width="133.33" height="40" as="geometry" />
        </mxCell>
        <mxCell id="c7gIeQ4KLr-0-EGLMsei-21" style="edgeStyle=orthogonalEdgeStyle;rounded=0;orthogonalLoop=1;jettySize=auto;html=1;exitX=1;exitY=0.5;exitDx=0;exitDy=0;exitPerimeter=0;entryX=0;entryY=0.5;entryDx=0;entryDy=0;entryPerimeter=0;endArrow=none;endFill=0;strokeColor=#4A919B;" parent="1" source="c7gIeQ4KLr-0-EGLMsei-11" target="c7gIeQ4KLr-0-EGLMsei-14" edge="1">
          <mxGeometry relative="1" as="geometry" />
        </mxCell>
        <mxCell id="c7gIeQ4KLr-0-EGLMsei-25" style="edgeStyle=none;rounded=0;orthogonalLoop=1;jettySize=auto;html=1;exitX=1;exitY=0.5;exitDx=0;exitDy=0;exitPerimeter=0;entryX=0;entryY=0.5;entryDx=0;entryDy=0;entryPerimeter=0;endArrow=none;endFill=0;elbow=vertical;strokeColor=#4A919B;" parent="1" source="c7gIeQ4KLr-0-EGLMsei-11" target="c7gIeQ4KLr-0-EGLMsei-13" edge="1">
          <mxGeometry relative="1" as="geometry" />
        </mxCell>
        <mxCell id="c7gIeQ4KLr-0-EGLMsei-11" value="" style="fontColor=#0066CC;verticalAlign=top;verticalLabelPosition=bottom;labelPosition=center;align=center;html=1;outlineConnect=0;gradientColor=none;gradientDirection=north;strokeWidth=2;shape=mxgraph.networks.router;fillColor=#4A919B;fontSize=30;" parent="1" vertex="1">
          <mxGeometry x="398" y="718.5" width="133.33" height="40" as="geometry" />
        </mxCell>
        <mxCell id="c7gIeQ4KLr-0-EGLMsei-35" style="edgeStyle=none;rounded=0;orthogonalLoop=1;jettySize=auto;html=1;exitX=1;exitY=0.5;exitDx=0;exitDy=0;exitPerimeter=0;endArrow=none;endFill=0;elbow=vertical;strokeColor=#4A919B;" parent="1" source="c7gIeQ4KLr-0-EGLMsei-13" target="c7gIeQ4KLr-0-EGLMsei-16" edge="1">
          <mxGeometry relative="1" as="geometry" />
        </mxCell>
        <mxCell id="c7gIeQ4KLr-0-EGLMsei-36" style="edgeStyle=none;rounded=0;orthogonalLoop=1;jettySize=auto;html=1;exitX=1;exitY=0.5;exitDx=0;exitDy=0;exitPerimeter=0;entryX=0;entryY=0.5;entryDx=0;entryDy=0;entryPerimeter=0;endArrow=none;endFill=0;elbow=vertical;strokeColor=#4A919B;" parent="1" source="c7gIeQ4KLr-0-EGLMsei-13" target="c7gIeQ4KLr-0-EGLMsei-17" edge="1">
          <mxGeometry relative="1" as="geometry" />
        </mxCell>
        <mxCell id="c7gIeQ4KLr-0-EGLMsei-37" style="edgeStyle=none;rounded=0;orthogonalLoop=1;jettySize=auto;html=1;exitX=0.5;exitY=1;exitDx=0;exitDy=0;exitPerimeter=0;endArrow=none;endFill=0;elbow=vertical;strokeColor=#4A919B;" parent="1" source="c7gIeQ4KLr-0-EGLMsei-13" target="c7gIeQ4KLr-0-EGLMsei-14" edge="1">
          <mxGeometry relative="1" as="geometry" />
        </mxCell>
        <mxCell id="c7gIeQ4KLr-0-EGLMsei-13" value="" style="fontColor=#0066CC;verticalAlign=top;verticalLabelPosition=bottom;labelPosition=center;align=center;html=1;outlineConnect=0;gradientColor=none;gradientDirection=north;strokeWidth=2;shape=mxgraph.networks.router;fillColor=#4A919B;fontSize=30;" parent="1" vertex="1">
          <mxGeometry x="615" y="603.5" width="133.33" height="40" as="geometry" />
        </mxCell>
        <mxCell id="c7gIeQ4KLr-0-EGLMsei-39" style="edgeStyle=none;rounded=0;orthogonalLoop=1;jettySize=auto;html=1;exitX=1;exitY=0.5;exitDx=0;exitDy=0;exitPerimeter=0;entryX=0;entryY=0.5;entryDx=0;entryDy=0;entryPerimeter=0;endArrow=none;endFill=0;elbow=vertical;strokeColor=#4A919B;" parent="1" source="c7gIeQ4KLr-0-EGLMsei-14" target="c7gIeQ4KLr-0-EGLMsei-17" edge="1">
          <mxGeometry relative="1" as="geometry" />
        </mxCell>
        <mxCell id="c7gIeQ4KLr-0-EGLMsei-40" style="edgeStyle=none;rounded=0;orthogonalLoop=1;jettySize=auto;html=1;exitX=1;exitY=0.5;exitDx=0;exitDy=0;exitPerimeter=0;entryX=0;entryY=0.5;entryDx=0;entryDy=0;entryPerimeter=0;endArrow=none;endFill=0;elbow=vertical;strokeColor=#4A919B;" parent="1" source="c7gIeQ4KLr-0-EGLMsei-14" target="c7gIeQ4KLr-0-EGLMsei-16" edge="1">
          <mxGeometry relative="1" as="geometry" />
        </mxCell>
        <mxCell id="c7gIeQ4KLr-0-EGLMsei-14" value="" style="fontColor=#0066CC;verticalAlign=top;verticalLabelPosition=bottom;labelPosition=center;align=center;html=1;outlineConnect=0;gradientColor=none;gradientDirection=north;strokeWidth=2;shape=mxgraph.networks.router;fillColor=#4A919B;fontSize=30;" parent="1" vertex="1">
          <mxGeometry x="615" y="718.5" width="133.33" height="40" as="geometry" />
        </mxCell>
        <mxCell id="c7gIeQ4KLr-0-EGLMsei-51" style="edgeStyle=none;rounded=0;orthogonalLoop=1;jettySize=auto;html=1;exitX=0.5;exitY=1;exitDx=0;exitDy=0;exitPerimeter=0;endArrow=none;endFill=0;elbow=vertical;strokeColor=#4A919B;" parent="1" source="c7gIeQ4KLr-0-EGLMsei-16" target="c7gIeQ4KLr-0-EGLMsei-17" edge="1">
          <mxGeometry relative="1" as="geometry" />
        </mxCell>
        <mxCell id="c7gIeQ4KLr-0-EGLMsei-16" value="" style="fontColor=#0066CC;verticalAlign=top;verticalLabelPosition=bottom;labelPosition=center;align=center;html=1;outlineConnect=0;gradientColor=none;gradientDirection=north;strokeWidth=2;shape=mxgraph.networks.router;fillColor=#4A919B;fontSize=30;" parent="1" vertex="1">
          <mxGeometry x="825" y="603" width="133.33" height="40" as="geometry" />
        </mxCell>
        <mxCell id="c7gIeQ4KLr-0-EGLMsei-17" value="" style="fontColor=#0066CC;verticalAlign=top;verticalLabelPosition=bottom;labelPosition=center;align=center;html=1;outlineConnect=0;gradientColor=none;gradientDirection=north;strokeWidth=2;shape=mxgraph.networks.router;fillColor=#4A919B;fontSize=30;" parent="1" vertex="1">
          <mxGeometry x="825" y="718" width="133.33" height="40" as="geometry" />
        </mxCell>
        <mxCell id="c7gIeQ4KLr-0-EGLMsei-52" style="edgeStyle=none;rounded=0;orthogonalLoop=1;jettySize=auto;html=1;exitX=0;exitY=0.75;exitDx=0;exitDy=0;entryX=1;entryY=0.5;entryDx=0;entryDy=0;entryPerimeter=0;endArrow=none;endFill=0;elbow=vertical;strokeColor=#4A919B;" parent="1" target="c7gIeQ4KLr-0-EGLMsei-17" edge="1">
          <mxGeometry relative="1" as="geometry">
            <mxPoint x="1035" y="623.25" as="sourcePoint" />
          </mxGeometry>
        </mxCell>
        <mxCell id="c7gIeQ4KLr-0-EGLMsei-53" style="edgeStyle=none;rounded=0;orthogonalLoop=1;jettySize=auto;html=1;exitX=0;exitY=0.75;exitDx=0;exitDy=0;entryX=1;entryY=0.5;entryDx=0;entryDy=0;entryPerimeter=0;endArrow=none;endFill=0;elbow=vertical;strokeColor=#4A919B;" parent="1" target="c7gIeQ4KLr-0-EGLMsei-16" edge="1">
          <mxGeometry relative="1" as="geometry">
            <mxPoint x="1035" y="623.25" as="sourcePoint" />
          </mxGeometry>
        </mxCell>
        <mxCell id="4TxH-90lgYd3L1T1hEvO-2" value="&lt;font color=&quot;#4a919b&quot; style=&quot;font-size: 18px;&quot;&gt;9&lt;/font&gt;" style="text;html=1;strokeColor=none;fillColor=none;align=center;verticalAlign=middle;whiteSpace=wrap;rounded=0;" parent="1" vertex="1">
          <mxGeometry x="540" y="482" width="60" height="30" as="geometry" />
        </mxCell>
        <mxCell id="4TxH-90lgYd3L1T1hEvO-3" value="&lt;font color=&quot;#4a919b&quot; style=&quot;font-size: 18px;&quot;&gt;4&lt;/font&gt;" style="text;html=1;strokeColor=none;fillColor=none;align=center;verticalAlign=middle;whiteSpace=wrap;rounded=0;" parent="1" vertex="1">
          <mxGeometry x="418" y="556" width="60" height="30" as="geometry" />
        </mxCell>
        <mxCell id="4TxH-90lgYd3L1T1hEvO-4" value="&lt;font color=&quot;#4a919b&quot; style=&quot;font-size: 18px;&quot;&gt;2&lt;/font&gt;" style="text;html=1;strokeColor=none;fillColor=none;align=center;verticalAlign=middle;whiteSpace=wrap;rounded=0;" parent="1" vertex="1">
          <mxGeometry x="533" y="517" width="60" height="30" as="geometry" />
        </mxCell>
        <mxCell id="4TxH-90lgYd3L1T1hEvO-5" value="&lt;font color=&quot;#4a919b&quot; style=&quot;font-size: 18px;&quot;&gt;3&lt;/font&gt;" style="text;html=1;strokeColor=none;fillColor=none;align=center;verticalAlign=middle;whiteSpace=wrap;rounded=0;" parent="1" vertex="1">
          <mxGeometry x="322" y="534" width="60" height="30" as="geometry" />
        </mxCell>
        <mxCell id="4TxH-90lgYd3L1T1hEvO-6" value="&lt;font color=&quot;#4a919b&quot; style=&quot;font-size: 18px;&quot;&gt;5&lt;/font&gt;" style="text;html=1;strokeColor=none;fillColor=none;align=center;verticalAlign=middle;whiteSpace=wrap;rounded=0;" parent="1" vertex="1">
          <mxGeometry x="334" y="600" width="60" height="30" as="geometry" />
        </mxCell>
        <mxCell id="4TxH-90lgYd3L1T1hEvO-7" value="&lt;font color=&quot;#4a919b&quot; style=&quot;font-size: 18px;&quot;&gt;7&lt;/font&gt;" style="text;html=1;strokeColor=none;fillColor=none;align=center;verticalAlign=middle;whiteSpace=wrap;rounded=0;" parent="1" vertex="1">
          <mxGeometry x="316" y="678" width="60" height="30" as="geometry" />
        </mxCell>
        <mxCell id="4TxH-90lgYd3L1T1hEvO-8" value="&lt;font color=&quot;#4a919b&quot; style=&quot;font-size: 18px;&quot;&gt;4&lt;/font&gt;" style="text;html=1;strokeColor=none;fillColor=none;align=center;verticalAlign=middle;whiteSpace=wrap;rounded=0;" parent="1" vertex="1">
          <mxGeometry x="506" y="547" width="60" height="30" as="geometry" />
        </mxCell>
        <mxCell id="4TxH-90lgYd3L1T1hEvO-9" value="&lt;font color=&quot;#4a919b&quot; style=&quot;font-size: 18px;&quot;&gt;10&lt;/font&gt;" style="text;html=1;strokeColor=none;fillColor=none;align=center;verticalAlign=middle;whiteSpace=wrap;rounded=0;" parent="1" vertex="1">
          <mxGeometry x="431" y="763" width="60" height="30" as="geometry" />
        </mxCell>
        <mxCell id="4TxH-90lgYd3L1T1hEvO-10" value="&lt;font color=&quot;#4a919b&quot; style=&quot;font-size: 18px;&quot;&gt;6&lt;/font&gt;" style="text;html=1;strokeColor=none;fillColor=none;align=center;verticalAlign=middle;whiteSpace=wrap;rounded=0;" parent="1" vertex="1">
          <mxGeometry x="418" y="666" width="60" height="30" as="geometry" />
        </mxCell>
        <mxCell id="4TxH-90lgYd3L1T1hEvO-12" value="&lt;font color=&quot;#4a919b&quot; style=&quot;font-size: 18px;&quot;&gt;7&lt;/font&gt;" style="text;html=1;strokeColor=none;fillColor=none;align=center;verticalAlign=middle;whiteSpace=wrap;rounded=0;" parent="1" vertex="1">
          <mxGeometry x="542" y="742" width="60" height="30" as="geometry" />
        </mxCell>
        <mxCell id="4TxH-90lgYd3L1T1hEvO-13" value="&lt;font color=&quot;#4a919b&quot; style=&quot;font-size: 18px;&quot;&gt;1&lt;/font&gt;" style="text;html=1;strokeColor=none;fillColor=none;align=center;verticalAlign=middle;whiteSpace=wrap;rounded=0;" parent="1" vertex="1">
          <mxGeometry x="506" y="639" width="60" height="30" as="geometry" />
        </mxCell>
        <mxCell id="4TxH-90lgYd3L1T1hEvO-15" value="&lt;font color=&quot;#4a919b&quot; style=&quot;font-size: 18px;&quot;&gt;3&lt;/font&gt;" style="text;html=1;strokeColor=none;fillColor=none;align=center;verticalAlign=middle;whiteSpace=wrap;rounded=0;" parent="1" vertex="1">
          <mxGeometry x="496" y="687.5" width="60" height="30" as="geometry" />
        </mxCell>
        <mxCell id="4TxH-90lgYd3L1T1hEvO-16" value="&lt;font color=&quot;#4a919b&quot; style=&quot;font-size: 18px;&quot;&gt;5&lt;/font&gt;" style="text;html=1;strokeColor=none;fillColor=none;align=center;verticalAlign=middle;whiteSpace=wrap;rounded=0;" parent="1" vertex="1">
          <mxGeometry x="527" y="708" width="60" height="30" as="geometry" />
        </mxCell>
        <mxCell id="4TxH-90lgYd3L1T1hEvO-17" value="&lt;font color=&quot;#4a919b&quot; style=&quot;font-size: 18px;&quot;&gt;8&lt;/font&gt;" style="text;html=1;strokeColor=none;fillColor=none;align=center;verticalAlign=middle;whiteSpace=wrap;rounded=0;" parent="1" vertex="1">
          <mxGeometry x="523" y="600" width="60" height="30" as="geometry" />
        </mxCell>
        <mxCell id="4TxH-90lgYd3L1T1hEvO-18" value="&lt;font color=&quot;#4a919b&quot; style=&quot;font-size: 18px;&quot;&gt;6&lt;/font&gt;" style="text;html=1;strokeColor=none;fillColor=none;align=center;verticalAlign=middle;whiteSpace=wrap;rounded=0;" parent="1" vertex="1">
          <mxGeometry x="506" y="578.5" width="60" height="30" as="geometry" />
        </mxCell>
        <mxCell id="4TxH-90lgYd3L1T1hEvO-23" value="&lt;font color=&quot;#4a919b&quot; style=&quot;font-size: 18px;&quot;&gt;3&lt;/font&gt;" style="text;html=1;strokeColor=none;fillColor=none;align=center;verticalAlign=middle;whiteSpace=wrap;rounded=0;" parent="1" vertex="1">
          <mxGeometry x="740" y="600" width="60" height="30" as="geometry" />
        </mxCell>
        <mxCell id="4TxH-90lgYd3L1T1hEvO-24" value="&lt;font color=&quot;#4a919b&quot; style=&quot;font-size: 18px;&quot;&gt;5&lt;/font&gt;" style="text;html=1;strokeColor=none;fillColor=none;align=center;verticalAlign=middle;whiteSpace=wrap;rounded=0;" parent="1" vertex="1">
          <mxGeometry x="721" y="636" width="60" height="30" as="geometry" />
        </mxCell>
        <mxCell id="4TxH-90lgYd3L1T1hEvO-29" value="&lt;font color=&quot;#4a919b&quot; style=&quot;font-size: 18px;&quot;&gt;7&lt;/font&gt;" style="text;html=1;strokeColor=none;fillColor=none;align=center;verticalAlign=middle;whiteSpace=wrap;rounded=0;" parent="1" vertex="1">
          <mxGeometry x="715" y="687.5" width="60" height="30" as="geometry" />
        </mxCell>
        <mxCell id="4TxH-90lgYd3L1T1hEvO-30" value="&lt;font color=&quot;#4a919b&quot; style=&quot;font-size: 18px;&quot;&gt;9&lt;/font&gt;" style="text;html=1;strokeColor=none;fillColor=none;align=center;verticalAlign=middle;whiteSpace=wrap;rounded=0;" parent="1" vertex="1">
          <mxGeometry x="743" y="708" width="60" height="30" as="geometry" />
        </mxCell>
        <mxCell id="4TxH-90lgYd3L1T1hEvO-31" value="&lt;font color=&quot;#4a919b&quot; style=&quot;font-size: 18px;&quot;&gt;2&lt;/font&gt;" style="text;html=1;strokeColor=none;fillColor=none;align=center;verticalAlign=middle;whiteSpace=wrap;rounded=0;" parent="1" vertex="1">
          <mxGeometry x="754" y="742" width="60" height="30" as="geometry" />
        </mxCell>
        <mxCell id="4TxH-90lgYd3L1T1hEvO-32" value="&lt;font color=&quot;#4a919b&quot; style=&quot;font-size: 18px;&quot;&gt;2&lt;/font&gt;" style="text;html=1;strokeColor=none;fillColor=none;align=center;verticalAlign=middle;whiteSpace=wrap;rounded=0;" parent="1" vertex="1">
          <mxGeometry x="637" y="666" width="60" height="30" as="geometry" />
        </mxCell>
        <mxCell id="4TxH-90lgYd3L1T1hEvO-35" value="&lt;font color=&quot;#4a919b&quot; style=&quot;font-size: 18px;&quot;&gt;6&lt;/font&gt;" style="text;html=1;strokeColor=none;fillColor=none;align=center;verticalAlign=middle;whiteSpace=wrap;rounded=0;" parent="1" vertex="1">
          <mxGeometry x="879" y="666" width="60" height="30" as="geometry" />
        </mxCell>
        <mxCell id="4TxH-90lgYd3L1T1hEvO-36" value="&lt;font color=&quot;#4a919b&quot; style=&quot;font-size: 18px;&quot;&gt;2&lt;/font&gt;" style="text;html=1;strokeColor=none;fillColor=none;align=center;verticalAlign=middle;whiteSpace=wrap;rounded=0;" parent="1" vertex="1">
          <mxGeometry x="980" y="678" width="60" height="30" as="geometry" />
        </mxCell>
        <mxCell id="4TxH-90lgYd3L1T1hEvO-37" value="&lt;font color=&quot;#4a919b&quot; style=&quot;font-size: 18px;&quot;&gt;8&lt;/font&gt;" style="text;html=1;strokeColor=none;fillColor=none;align=center;verticalAlign=middle;whiteSpace=wrap;rounded=0;" parent="1" vertex="1">
          <mxGeometry x="958.3299999999999" y="596" width="60" height="30" as="geometry" />
        </mxCell>
        <mxCell id="EHCT5uIycjtKFWLs671a-2" style="edgeStyle=orthogonalEdgeStyle;rounded=0;orthogonalLoop=1;jettySize=auto;html=1;exitX=1;exitY=0.5;exitDx=0;exitDy=0;entryX=0;entryY=0.75;entryDx=0;entryDy=0;endArrow=none;endFill=0;strokeColor=#4A919B;" parent="1" source="EHCT5uIycjtKFWLs671a-1" target="c7gIeQ4KLr-0-EGLMsei-6" edge="1">
          <mxGeometry relative="1" as="geometry" />
        </mxCell>
        <mxCell id="EHCT5uIycjtKFWLs671a-1" value="" style="shape=image;verticalLabelPosition=bottom;verticalAlign=top;imageAspect=0;aspect=fixed;image=data:image/svg+xml,PHN2ZyB4bWxuczp4bGluaz0iaHR0cDovL3d3dy53My5vcmcvMTk5OS94bGluayIgeG1sbnM9Imh0dHA6Ly93d3cudzMub3JnLzIwMDAvc3ZnIiBoZWlnaHQ9IjIwMCIgd2lkdGg9IjIwMCIgdmVyc2lvbj0iMS4xIiB2aWV3Qm94PSIwIDAgMTAyNCAxMDI0IiBjbGFzcz0iaWNvbiI+PGRlZnM+PHN0eWxlIHR5cGU9InRleHQvY3NzIj5AZm9udC1mYWNlIHsgZm9udC1mYW1pbHk6IGZlZWRiYWNrLWljb25mb250OyBzcmM6IHVybCgiLy9hdC5hbGljZG4uY29tL3QvZm9udF8xMDMxMTU4X3U2OXc4eWh4ZHUud29mZjI/dD0xNjMwMDMzNzU5OTQ0IikgZm9ybWF0KCJ3b2ZmMiIpLCB1cmwoIi8vYXQuYWxpY2RuLmNvbS90L2ZvbnRfMTAzMTE1OF91Njl3OHloeGR1LndvZmY/dD0xNjMwMDMzNzU5OTQ0IikgZm9ybWF0KCJ3b2ZmIiksIHVybCgiLy9hdC5hbGljZG4uY29tL3QvZm9udF8xMDMxMTU4X3U2OXc4eWh4ZHUudHRmP3Q9MTYzMDAzMzc1OTk0NCIpIGZvcm1hdCgidHJ1ZXR5cGUiKTsgfSYjeGE7PC9zdHlsZT48L2RlZnM+PHBhdGggZmlsbD0iIzRBOTE5QiIgZD0iTTg0Mi4zOTQ1OTUgNzk5LjczMzIzNyA2NDAuOTczMDc2IDc5OS43MzMyMzcgNjQwLjk3MzA3NiA5MTQuODI1NTA4bDU3LjU0OTAwNSAwYzE1LjkwMzg1MyAwIDI4Ljc3NDUwMyAxMi44NjkwOTkgMjguNzc0NTAzIDI4Ljc3MzMyNCAwIDE1LjkwMzIwMi0xMi44NzA2NDkgMjguNzcyMy0yOC43NzQ1MDMgMjguNzcyM0wzNTMuMjI4MDUgOTcyLjM3MTEzMmMtMTUuOTA0ODc3IDAtMjguNzc0NTAzLTEyLjg2OTA5OS0yOC43NzQ1MDMtMjguNzcyMyAwLTE1LjkwNDIyNSAxMi44Njk2MjYtMjguNzczMzI0IDI4Ljc3NDUwMy0yOC43NzMzMjRsNTcuNTQ5MDA1IDBMNDEwLjc3NzA1NSA3OTkuNzMzMjM3IDE4MC41ODEwMzQgNzk5LjczMzIzN2MtNjMuNTYyMTk5IDAtMTE1LjA5ODAxMS01MS41MzM3LTExNS4wOTgwMTEtMTE1LjA5MzI5NUw2NS40ODMwMjMgMTY2LjcyMDExNmMwLTYzLjU1OTU5NSA1MS41MzU4MTItMTE1LjA5MzI5NSAxMTUuMDk4MDExLTExNS4wOTMyOTVsNjYxLjgxMjUzNyAwYzYzLjU2MTE3NiAwIDExNS4wOTgwMTEgNTEuNTMzNyAxMTUuMDk4MDExIDExNS4wOTMyOTVsMCA1MTcuOTE5ODI2Qzk1Ny40OTE1ODIgNzQ4LjE5ODUxMyA5MDUuOTU1NzcgNzk5LjczMzIzNyA4NDIuMzk0NTk1IDc5OS43MzMyMzd6TTU4My40MjQwNzEgOTE0LjgyNTUwOCA1ODMuNDI0MDcxIDc5OS43MzMyMzcgNDY4LjMyNjA2IDc5OS43MzMyMzcgNDY4LjMyNjA2IDkxNC44MjU1MDggNTgzLjQyNDA3MSA5MTQuODI1NTA4ek04OTkuOTQyNTc3IDE2Ni43MjAxMTZjMC0zMS43Nzk3OTctMjUuNzY3OTA2LTU3LjU0NjY0Ny01Ny41NDc5ODItNTcuNTQ2NjQ3TDE4MC41ODEwMzQgMTA5LjE3MzQ2OGMtMzEuNzgxMDk5IDAtNTcuNTQ5MDA1IDI1Ljc2Njg1LTU3LjU0OTAwNSA1Ny41NDY2NDdsMCA0MDIuODI2NTMyTDg5OS45NDI1NzcgNTY5LjU0NjY0NyA4OTkuOTQyNTc3IDE2Ni43MjAxMTZ6TTg5OS45NDI1NzcgNjI3LjA5MzI5NSAxMjMuMDMzMDUyIDYyNy4wOTMyOTVsMCA1Ny41NDY2NDdjMCAzMS43Nzk3OTcgMjUuNzY3OTA2IDU3LjU0NTYyNCA1Ny41NDkwMDUgNTcuNTQ1NjI0bDY2MS44MTI1MzcgMGMzMS43ODEwOTkgMCA1Ny41NDc5ODItMjUuNzY2ODUgNTcuNTQ3OTgyLTU3LjU0NTYyNEw4OTkuOTQyNTc3IDYyNy4wOTMyOTV6Ii8+PC9zdmc+" parent="1" vertex="1">
          <mxGeometry x="42" y="560.5" width="125" height="125" as="geometry" />
        </mxCell>
        <mxCell id="EHCT5uIycjtKFWLs671a-7" value="" style="shape=image;verticalLabelPosition=bottom;verticalAlign=top;imageAspect=0;image=data:image/svg+xml,PHN2ZyB4bWxuczp4bGluaz0iaHR0cDovL3d3dy53My5vcmcvMTk5OS94bGluayIgeG1sbnM9Imh0dHA6Ly93d3cudzMub3JnLzIwMDAvc3ZnIiBoZWlnaHQ9IjIwMCIgd2lkdGg9IjIwMCIgdmVyc2lvbj0iMS4xIiB2aWV3Qm94PSIwIDAgMTAyNCAxMDI0IiBjbGFzcz0iaWNvbiI+PGRlZnM+PHN0eWxlIHR5cGU9InRleHQvY3NzIj5AZm9udC1mYWNlIHsgZm9udC1mYW1pbHk6IGZlZWRiYWNrLWljb25mb250OyBzcmM6IHVybCgiLy9hdC5hbGljZG4uY29tL3QvZm9udF8xMDMxMTU4X3U2OXc4eWh4ZHUud29mZjI/dD0xNjMwMDMzNzU5OTQ0IikgZm9ybWF0KCJ3b2ZmMiIpLCB1cmwoIi8vYXQuYWxpY2RuLmNvbS90L2ZvbnRfMTAzMTE1OF91Njl3OHloeGR1LndvZmY/dD0xNjMwMDMzNzU5OTQ0IikgZm9ybWF0KCJ3b2ZmIiksIHVybCgiLy9hdC5hbGljZG4uY29tL3QvZm9udF8xMDMxMTU4X3U2OXc4eWh4ZHUudHRmP3Q9MTYzMDAzMzc1OTk0NCIpIGZvcm1hdCgidHJ1ZXR5cGUiKTsgfSYjeGE7PC9zdHlsZT48L2RlZnM+PHBhdGggZmlsbD0iIzRBOTE5QiIgZD0iTTAgNzI4djEzNmMwIDM1LjMgMjguNyA2NCA2NCA2NGg4OTZjMzUuMyAwIDY0LTI4LjcgNjQtNjRWNzI4YzAtNC40LTMuNi04LTgtOEg4Yy00LjQgMC04IDMuNi04IDh6IG03NzQgOTZjMCA0LjQtMy42IDgtOCA4SDQyNGMtNC40IDAtOC0zLjYtOC04di00OGMwLTQuNCAzLjYtOCA4LThoMzQyYzQuNCAwIDggMy42IDggOHY0OHogbTEyMiAwYzAgNC40LTMuNiA4LTggOGgtNDhjLTQuNCAwLTgtMy42LTgtOHYtNDhjMC00LjQgMy42LTggOC04aDQ4YzQuNCAwIDggMy42IDggOHY0OHpNMCA1MzZ2MTQ0YzAgNC40IDMuNiA4IDggOGgxMDA4YzQuNCAwIDgtMy42IDgtOFY1MzZjMC00LjQtMy42LTgtOC04SDhjLTQuNCAwLTggMy42LTggOHogbTc3NCA5NmMwIDQuNC0zLjYgOC04IDhINDI0Yy00LjQgMC04LTMuNi04LTh2LTQ4YzAtNC40IDMuNi04IDgtOGgzNDJjNC40IDAgOCAzLjYgOCA4djQ4eiBtMTIyIDBjMCA0LjQtMy42IDgtOCA4aC00OGMtNC40IDAtOC0zLjYtOC04di00OGMwLTQuNCAzLjYtOCA4LThoNDhjNC40IDAgOCAzLjYgOCA4djQ4ek0wIDM0NHYxNDRjMCA0LjQgMy42IDggOCA4aDEwMDhjNC40IDAgOC0zLjYgOC04VjM0NGMwLTQuNC0zLjYtOC04LThIOGMtNC40IDAtOCAzLjYtOCA4eiBtNzc0IDk2YzAgNC40LTMuNiA4LTggOEg0MjRjLTQuNCAwLTgtMy42LTgtOHYtNDhjMC00LjQgMy42LTggOC04aDM0MmM0LjQgMCA4IDMuNiA4IDh2NDh6IG0xMjIgMGMwIDQuNC0zLjYgOC04IDhoLTQ4Yy00LjQgMC04LTMuNi04LTh2LTQ4YzAtNC40IDMuNi04IDgtOGg0OGM0LjQgMCA4IDMuNiA4IDh2NDh6TTk2MCA5Nkg2NGMtMzUuMyAwLTY0IDI4LjctNjQgNjR2MTM2YzAgNC40IDMuNiA4IDggOGgxMDA4YzQuNCAwIDgtMy42IDgtOFYxNjBjMC0zNS4zLTI4LjctNjQtNjQtNjR6TTc3NCAyNDhjMCA0LjQtMy42IDgtOCA4SDQyNGMtNC40IDAtOC0zLjYtOC04di00OGMwLTQuNCAzLjYtOCA4LThoMzQyYzQuNCAwIDggMy42IDggOHY0OHogbTEyMiAwYzAgNC40LTMuNiA4LTggOGgtNDhjLTQuNCAwLTgtMy42LTgtOHYtNDhjMC00LjQgMy42LTggOC04aDQ4YzQuNCAwIDggMy42IDggOHY0OHoiLz48L3N2Zz4=" parent="1" vertex="1">
          <mxGeometry x="1037" y="563.5" width="120" height="120" as="geometry" />
        </mxCell>
        <mxCell id="EHCT5uIycjtKFWLs671a-8" value="" style="shape=image;verticalLabelPosition=bottom;verticalAlign=top;imageAspect=0;image=data:image/svg+xml,PHN2ZyB4bWxuczp4bGluaz0iaHR0cDovL3d3dy53My5vcmcvMTk5OS94bGluayIgeG1sbnM9Imh0dHA6Ly93d3cudzMub3JnLzIwMDAvc3ZnIiBoZWlnaHQ9IjIwMCIgd2lkdGg9IjIwMCIgdmVyc2lvbj0iMS4xIiB2aWV3Qm94PSIwIDAgMTAyNCAxMDI0IiBjbGFzcz0iaWNvbiI+PGRlZnM+PHN0eWxlIHR5cGU9InRleHQvY3NzIj5AZm9udC1mYWNlIHsgZm9udC1mYW1pbHk6IGZlZWRiYWNrLWljb25mb250OyBzcmM6IHVybCgiLy9hdC5hbGljZG4uY29tL3QvZm9udF8xMDMxMTU4X3U2OXc4eWh4ZHUud29mZjI/dD0xNjMwMDMzNzU5OTQ0IikgZm9ybWF0KCJ3b2ZmMiIpLCB1cmwoIi8vYXQuYWxpY2RuLmNvbS90L2ZvbnRfMTAzMTE1OF91Njl3OHloeGR1LndvZmY/dD0xNjMwMDMzNzU5OTQ0IikgZm9ybWF0KCJ3b2ZmIiksIHVybCgiLy9hdC5hbGljZG4uY29tL3QvZm9udF8xMDMxMTU4X3U2OXc4eWh4ZHUudHRmP3Q9MTYzMDAzMzc1OTk0NCIpIGZvcm1hdCgidHJ1ZXR5cGUiKTsgfSYjeGE7PC9zdHlsZT48L2RlZnM+PHBhdGggZmlsbD0iIzRBOTE5QiIgZD0iTTAgNzI4djEzNmMwIDM1LjMgMjguNyA2NCA2NCA2NGg4OTZjMzUuMyAwIDY0LTI4LjcgNjQtNjRWNzI4YzAtNC40LTMuNi04LTgtOEg4Yy00LjQgMC04IDMuNi04IDh6IG03NzQgOTZjMCA0LjQtMy42IDgtOCA4SDQyNGMtNC40IDAtOC0zLjYtOC04di00OGMwLTQuNCAzLjYtOCA4LThoMzQyYzQuNCAwIDggMy42IDggOHY0OHogbTEyMiAwYzAgNC40LTMuNiA4LTggOGgtNDhjLTQuNCAwLTgtMy42LTgtOHYtNDhjMC00LjQgMy42LTggOC04aDQ4YzQuNCAwIDggMy42IDggOHY0OHpNMCA1MzZ2MTQ0YzAgNC40IDMuNiA4IDggOGgxMDA4YzQuNCAwIDgtMy42IDgtOFY1MzZjMC00LjQtMy42LTgtOC04SDhjLTQuNCAwLTggMy42LTggOHogbTc3NCA5NmMwIDQuNC0zLjYgOC04IDhINDI0Yy00LjQgMC04LTMuNi04LTh2LTQ4YzAtNC40IDMuNi04IDgtOGgzNDJjNC40IDAgOCAzLjYgOCA4djQ4eiBtMTIyIDBjMCA0LjQtMy42IDgtOCA4aC00OGMtNC40IDAtOC0zLjYtOC04di00OGMwLTQuNCAzLjYtOCA4LThoNDhjNC40IDAgOCAzLjYgOCA4djQ4ek0wIDM0NHYxNDRjMCA0LjQgMy42IDggOCA4aDEwMDhjNC40IDAgOC0zLjYgOC04VjM0NGMwLTQuNC0zLjYtOC04LThIOGMtNC40IDAtOCAzLjYtOCA4eiBtNzc0IDk2YzAgNC40LTMuNiA4LTggOEg0MjRjLTQuNCAwLTgtMy42LTgtOHYtNDhjMC00LjQgMy42LTggOC04aDM0MmM0LjQgMCA4IDMuNiA4IDh2NDh6IG0xMjIgMGMwIDQuNC0zLjYgOC04IDhoLTQ4Yy00LjQgMC04LTMuNi04LTh2LTQ4YzAtNC40IDMuNi04IDgtOGg0OGM0LjQgMCA4IDMuNiA4IDh2NDh6TTk2MCA5Nkg2NGMtMzUuMyAwLTY0IDI4LjctNjQgNjR2MTM2YzAgNC40IDMuNiA4IDggOGgxMDA4YzQuNCAwIDgtMy42IDgtOFYxNjBjMC0zNS4zLTI4LjctNjQtNjQtNjR6TTc3NCAyNDhjMCA0LjQtMy42IDgtOCA4SDQyNGMtNC40IDAtOC0zLjYtOC04di00OGMwLTQuNCAzLjYtOCA4LThoMzQyYzQuNCAwIDggMy42IDggOHY0OHogbTEyMiAwYzAgNC40LTMuNiA4LTggOGgtNDhjLTQuNCAwLTgtMy42LTgtOHYtNDhjMC00LjQgMy42LTggOC04aDQ4YzQuNCAwIDggMy42IDggOHY0OHoiLz48L3N2Zz4=" parent="1" vertex="1">
          <mxGeometry x="615" y="449" width="120" height="120" as="geometry" />
        </mxCell>
        <mxCell id="EHCT5uIycjtKFWLs671a-9" value="&lt;font style=&quot;font-size: 18px;&quot; color=&quot;#4a919b&quot;&gt;&lt;b&gt;198.41.0.4&lt;/b&gt;&lt;/font&gt;" style="text;html=1;strokeColor=none;fillColor=none;align=center;verticalAlign=middle;whiteSpace=wrap;rounded=0;" parent="1" vertex="1">
          <mxGeometry x="632.6600000000001" y="428" width="98" height="30" as="geometry" />
        </mxCell>
        <mxCell id="EHCT5uIycjtKFWLs671a-10" value="&lt;font style=&quot;font-size: 18px;&quot; color=&quot;#4a919b&quot;&gt;&lt;b&gt;198.41.0.4&lt;/b&gt;&lt;/font&gt;" style="text;html=1;strokeColor=none;fillColor=none;align=center;verticalAlign=middle;whiteSpace=wrap;rounded=0;" parent="1" vertex="1">
          <mxGeometry x="1049" y="544" width="96" height="30" as="geometry" />
        </mxCell>
      </root>
    </mxGraphModel>
  </diagram>
</mxfile>
